<?xml version="1.0" standalone="yes"?>
<svg xmlns="http://www.w3.org/2000/svg" width="85" height="64">
<path style="fill:#010101; stroke:none;" d="M0 0L0 64L40 64L42 50L45 51C46.9578 47.2277 47.345 45.6193 45 42C51.3279 43.1706 56.3733 42.908 61 38L48 40L49 37L23 57L40 41L21 52L29 41C33.1568 42.4706 35.6677 41.2536 37 37C42.333 39.4922 49.1735 36.1563 53 32L50 34L52 29L48 30L57 24L57 23L46 27L55 20C48.7347 22.2931 43.2358 24.814 43 32L42 32L42 29L41 29L41 32L40 32L39 24L47 23L47 22C38.9901 22.0284 36.1125 25.3536 34 33L19 37L31.7755 30.4869L40.044 21.2639L55 17C50.6551 17.3115 48.1318 17.0245 46 13L50 12C48.5272 7.32822 49.9366 4.81143 55 5L55 12C63.4369 5.33893 64.4594 7.75087 63 17C70.8283 13.9603 78.5017 13.1599 72 23C73.6801 21.8377 75.2807 20.3787 77.0208 19.3179C87.7065 12.8042 80.4841 38.661 72 24L63 24L58 19L58 20L60 25C65.7425 25.9374 67.7788 31.9857 64.3966 36.9066C60.9659 41.8982 54.5526 42.893 50.1049 46.5571C45.1873 50.6083 42.433 57.9671 41 64L85 64L85 0L0 0z"/>
<path style="fill:#4d4e4d; stroke:none;" d="M31 15L27 7L26 6C15.7165 9.78218 23.8558 26.1054 31 15C36.5451 17.35 41.4819 11.9721 36 8L38 4C30.086 2.98805 30.5404 8.9564 31 15z"/>
<path style="fill:#3b3c3e; stroke:none;" d="M36.6667 3.33333L37.3333 3.66667L36.6667 3.33333M38.3333 4.66667L38.6667 5.33333L38.3333 4.66667M50 12L47 13L47 17L55 17L57 25L54 25L54 28L56 29L59 30L62 28L61 30L62 30L65 25L60 25L58 20L58 19L63 24L72 24C78.1848 41.7712 90.6894 9.51414 76.044 19.2778C74.5631 20.265 73.2621 21.7789 72 23C80.7477 13.5102 70.4294 12.9144 63 17C65.316 7.89513 62.9154 3.23952 55 12L55 5C49.5332 3.96786 47.9445 7.22412 50 12M24.6667 5.33333L25.3333 5.66667L24.6667 5.33333z"/>
<path style="fill:#4d4e4d; stroke:none;" d="M52 15L48 14L48 15C55.5732 16.7237 52.5403 9.83811 53 5C48.4902 7.58356 50.9681 10.7834 52 15z"/>
<path style="fill:#3b3c3e; stroke:none;" d="M22.6667 6.33333L23.3333 6.66667L22.6667 6.33333M26 6L27 7L26 6M37 6L38 7L37 6M20 7L20 13L21 13L22 7L20 7M27 7L28 8L27 7z"/>
<path style="fill:#4d4e4d; stroke:none;" d="M56 17L62 18L60 15L65 8C58.8633 6.97757 56.9672 11.5783 56 17z"/>
<path style="fill:#3b3c3e; stroke:none;" d="M37.6667 8.33333L38.3333 8.66667L37.6667 8.33333M39 9L35 16L35 17C39.0685 15.7649 40.6387 13.0633 39 9z"/>
<path style="fill:#2b2c2f; stroke:none;" d="M48 9L49 10L48 9z"/>
<path style="fill:#3b3c3e; stroke:none;" d="M29 10L30 15L31 15L29 10z"/>
<path style="fill:#2b2c2f; stroke:none;" d="M40 10L40 14L41 14L40 10z"/>
<path style="fill:#4d4e4d; stroke:none;" d="M10 21L7 18L3 18L2 24L4 23L6 32L10 31L9 27L12 29L11 27L14 28L19 12C11.4726 9.84292 8.30042 13.7586 10 21z"/>
<path style="fill:#3b3c3e; stroke:none;" d="M27.3333 11.6667L27.6667 12.3333L27.3333 11.6667M18 13L19 14L18 13z"/>
<path style="fill:#2b2c2f; stroke:none;" d="M46 13L48 16L46 13z"/>
<path style="fill:#3b3c3e; stroke:none;" d="M59 13L58 15L59 13M31 15L32 16L31 15M33 15L34 16L33 15z"/>
<path style="fill:#4d4e4d; stroke:none;" d="M63 22L68 19L68 24L76 16L75 15L73 17C68.0108 14.7133 65.1876 17.3649 63 22z"/>
<path style="fill:#3b3c3e; stroke:none;" d="M4 18L5 19L4 18z"/>
<path style="fill:#4d4e4d; stroke:none;" d="M73 26C79.6921 27.5328 84.3364 25.0869 81 18L73 26z"/>
<path style="fill:#3b3c3e; stroke:none;" d="M52 19L48 23L52 19z"/>
<path style="fill:#2b2c2f; stroke:none;" d="M53 19L54 20L53 19z"/>
<path style="fill:#3b3c3e; stroke:none;" d="M3.33333 20.6667L3.66667 21.3333L3.33333 20.6667M8.66667 20.3333L9.33333 20.6667L8.66667 20.3333z"/>
<path style="fill:#2b2c2f; stroke:none;" d="M40 21L40 22L44 20L40 21z"/>
<path style="fill:#3b3c3e; stroke:none;" d="M44.3333 20.6667L44.6667 21.3333L44.3333 20.6667z"/>
<path style="fill:#2b2c2f; stroke:none;" d="M45 20L47 23L39 25L40 32L41 32L41 29L42 29L42 32L43 32L49 20L45 20z"/>
<path style="fill:#181819; stroke:none;" d="M46 20L47 21L46 20z"/>
<path style="fill:#2b2c2f; stroke:none;" d="M51 20L52 21L51 20z"/>
<path style="fill:#3b3c3e; stroke:none;" d="M79 20L77 26C80.4754 24.8452 81.1683 22.995 79 20M35 26L40 21L35 26z"/>
<path style="fill:#2b2c2f; stroke:none;" d="M46 27C50.3952 26.9078 53.8348 24.8435 56 21L46 27z"/>
<path style="fill:#181819; stroke:none;" d="M54 22L55 23L54 22z"/>
<path style="fill:#4d4e4d; stroke:none;" d="M58 22L59 23L58 22z"/>
<path style="fill:#3b3c3e; stroke:none;" d="M3 23L3 27L4 27L3 23M51 23L52 24L51 23z"/>
<path style="fill:#2b2c2f; stroke:none;" d="M58 23L59 24L58 23z"/>
<path style="fill:#3b3c3e; stroke:none;" d="M39.6667 24.3333L40.3333 24.6667L39.6667 24.3333z"/>
<path style="fill:#2b2c2f; stroke:none;" d="M56 24L57 25L56 24M55 25L56 26L55 25z"/>
<path style="fill:#010101; stroke:none;" d="M57 25L58 26L57 25z"/>
<path style="fill:#2b2c2f; stroke:none;" d="M35 26L36 27L35 26z"/>
<path style="fill:#181819; stroke:none;" d="M41 26L42 27L41 26z"/>
<path style="fill:#2b2c2f; stroke:none;" d="M48 30L52 29L50 34L53 32L41 41L49 37L48 40L61 38L54 44C63.1674 41.2605 65.999 36.0052 66 27L64 27L65 33L59 32L59 31L63 29L61 30L62 28L60 30L59 30L56 29L56 27L55 27L54 28L55 26L48 30M58 26L59 27L58 26M60 26L61 27L60 26z"/>
<path style="fill:#181819; stroke:none;" d="M62 26L63 27L62 26z"/>
<path style="fill:#4d4e4d; stroke:none;" d="M63 26L64 27L63 26z"/>
<path style="fill:#3b3c3e; stroke:none;" d="M9 27L10 28L9 27M11.6667 27.3333L12.3333 27.6667L11.6667 27.3333M34 27L36 29L36 27L34 27z"/>
<path style="fill:#2b2c2f; stroke:none;" d="M77 27L78 28L77 27z"/>
<path style="fill:#3b3c3e; stroke:none;" d="M4 28L5 29L4 28z"/>
<path style="fill:#2b2c2f; stroke:none;" d="M34 28L33 31L34 28z"/>
<path style="fill:#010101; stroke:none;" d="M53 28L54 29L53 28M60 28L61 29L60 28z"/>
<path style="fill:#3b3c3e; stroke:none;" d="M33 29L34 30L33 29z"/>
<path style="fill:#010101; stroke:none;" d="M63 29L65 33L63 29z"/>
<path style="fill:#3b3c3e; stroke:none;" d="M5 30L6 31L5 30M32 30L32 32L34 32L32 30z"/>
<path style="fill:#181819; stroke:none;" d="M55 30L54 32L55 30z"/>
<path style="fill:#010101; stroke:none;" d="M57 30L58 31L57 30z"/>
<path style="fill:#181819; stroke:none;" d="M58 30L59 31L58 30z"/>
<path style="fill:#2b2c2f; stroke:none;" d="M31.3333 31.6667L31.6667 32.3333L31.3333 31.6667M55 31L56 32L55 31z"/>
<path style="fill:#010101; stroke:none;" d="M56 31L57 32L56 31M59 31L60 32L59 31z"/>
<path style="fill:#181819; stroke:none;" d="M60 31L61 32L60 31z"/>
<path style="fill:#010101; stroke:none;" d="M61 31L62 32L61 31z"/>
<path style="fill:#181819; stroke:none;" d="M62 31L63 32L62 31z"/>
<path style="fill:#3b3c3e; stroke:none;" d="M20 37L31 33C27.6612 31.3416 20.8431 33.0452 20 37z"/>
<path style="fill:#2b2c2f; stroke:none;" d="M33 32L34 33L33 32z"/>
<path style="fill:#010101; stroke:none;" d="M55 32L51 37L55 32M58.3333 32.6667L58.6667 33.3333L58.3333 32.6667z"/>
<path style="fill:#2b2c2f; stroke:none;" d="M28 33L29 34L28 33z"/>
<path style="fill:#181819; stroke:none;" d="M56 33L57 34L56 33z"/>
<path style="fill:#3b3c3e; stroke:none;" d="M62.3333 33.6667L62.6667 34.3333L62.3333 33.6667z"/>
<path style="fill:#2b2c2f; stroke:none;" d="M55.6667 34.3333L56.3333 34.6667L55.6667 34.3333z"/>
<path style="fill:#010101; stroke:none;" d="M57 34L56 36L58 36L57 34z"/>
<path style="fill:#4d4e4d; stroke:none;" d="M63 34L64 35L63 34z"/>
<path style="fill:#3b3c3e; stroke:none;" d="M64.3333 34.6667L64.6667 35.3333L64.3333 34.6667z"/>
<path style="fill:#2b2c2f; stroke:none;" d="M19.3333 35.6667L19.6667 36.3333L19.3333 35.6667z"/>
<path style="fill:#181819; stroke:none;" d="M55 35L56 36L55 35z"/>
<path style="fill:#010101; stroke:none;" d="M61.3333 35.6667L61.6667 36.3333L61.3333 35.6667z"/>
<path style="fill:#2b2c2f; stroke:none;" d="M37 37L37 39L39 39L37 37z"/>
<path style="fill:#3b3c3e; stroke:none;" d="M50 38L51 39L50 38z"/>
<path style="fill:#181819; stroke:none;" d="M63 38L64 39L63 38z"/>
<path style="fill:#3b3c3e; stroke:none;" d="M37 39L36 41L36 42L40 41L29 53L30 53L36 46C40.0174 45.2845 40.6484 42.8404 41 39L37 39z"/>
<path style="fill:#181819; stroke:none;" d="M61.6667 39.3333L62.3333 39.6667L61.6667 39.3333z"/>
<path style="fill:#2b2c2f; stroke:none;" d="M36.6667 40.3333L37.3333 40.6667L36.6667 40.3333M29 41L30 42L29 41z"/>
<path style="fill:#3b3c3e; stroke:none;" d="M34 41L29 42L25 47L25 50L34 41z"/>
<path style="fill:#2b2c2f; stroke:none;" d="M35 41L36 42L35 41M33 42L34 43L33 42M40 42L41 43L40 42z"/>
<path style="fill:#3b3c3e; stroke:none;" d="M45 42L45 51L42 50L42 57L52 46L45 42z"/>
<path style="fill:#2b2c2f; stroke:none;" d="M29 43L30 44L29 43M39 43L40 44L39 43M49 43L49 44L53 45L49 43z"/>
<path style="fill:#181819; stroke:none;" d="M53 43L54 44L53 43z"/>
<path style="fill:#2b2c2f; stroke:none;" d="M38 44L39 45L38 44M37 45L38 46L37 45M50 45L51 46L50 45M36 46L37 47L36 46M26 47L27 48L26 47M35 47L36 48L35 47M21 52L26 48L21 52M31 50L32 51L31 50M30 51L31 52L30 51M28 52L23 55L23 56L28 52z"/>
<path style="fill:#181819; stroke:none;" d="M24 55L25 56L24 55M23 56L24 57L23 56z"/>
<path style="fill:#2b2c2f; stroke:none;" d="M42 57L40 64L41 64L42 57z"/>
</svg>
